<?xml version="1.0" encoding="UTF-8" standalone="no"?>
<!-- Created with Inkscape (http://www.inkscape.org/) -->

<svg
   xmlns:dc="http://purl.org/dc/elements/1.1/"
   xmlns:cc="http://creativecommons.org/ns#"
   xmlns:rdf="http://www.w3.org/1999/02/22-rdf-syntax-ns#"
   xmlns:svg="http://www.w3.org/2000/svg"
   xmlns="http://www.w3.org/2000/svg"
   xmlns:sodipodi="http://sodipodi.sourceforge.net/DTD/sodipodi-0.dtd"
   xmlns:inkscape="http://www.inkscape.org/namespaces/inkscape"
   width="171.61728"
   height="185.57961"
   viewBox="0 0 171.61727 185.5796"
   id="svg3384"
   version="1.1"
   inkscape:version="0.91 r13725"
   sodipodi:docname="hbeam_horizontal.svg">
  <defs
     id="defs3386" />
  <sodipodi:namedview
     id="base"
     pagecolor="#ffffff"
     bordercolor="#666666"
     borderopacity="1.0"
     inkscape:pageopacity="0.0"
     inkscape:pageshadow="2"
     inkscape:zoom="1.6652365"
     inkscape:cx="17.84318"
     inkscape:cy="99.190856"
     inkscape:document-units="px"
     inkscape:current-layer="layer1"
     showgrid="false"
     units="px"
     inkscape:snap-bbox="true"
     inkscape:snap-bbox-midpoints="false"
     inkscape:snap-bbox-edge-midpoints="true"
     inkscape:bbox-nodes="false"
     inkscape:bbox-paths="false"
     inkscape:window-width="1366"
     inkscape:window-height="696"
     inkscape:window-x="0"
     inkscape:window-y="0"
     inkscape:window-maximized="1"
     fit-margin-top="0"
     fit-margin-left="20"
     fit-margin-right="20"
     fit-margin-bottom="10" />
  <metadata
     id="metadata3389">
    <rdf:RDF>
      <cc:Work
         rdf:about="">
        <dc:format>image/svg+xml</dc:format>
        <dc:type
           rdf:resource="http://purl.org/dc/dcmitype/StillImage" />
        <dc:title></dc:title>
      </cc:Work>
    </rdf:RDF>
  </metadata>
  <g
     inkscape:label="レイヤー 1"
     inkscape:groupmode="layer"
     id="layer1"
     transform="translate(-18.916855,-854.31835)">
    <path
       style="fill:#ffffff;fill-opacity:1;stroke:#000000;stroke-width:0.99999988;stroke-linejoin:miter;stroke-miterlimit:4;stroke-dasharray:none;stroke-opacity:1"
       d="m 40.183169,959.19772 c 28.773657,16.61233 57.547314,33.22465 86.320971,49.83698 0,6.5737 0,13.1473 0,19.721 -28.773657,-16.6123 -57.547314,-33.22465 -86.320971,-49.83698 0,-6.57367 0,-13.14733 0,-19.721 z"
       id="path4203"
       inkscape:connector-curvature="0" />
    <path
       style="fill:#ffffff;fill-opacity:1;stroke:#000000;stroke-width:0.99999988;stroke-linejoin:miter;stroke-miterlimit:4;stroke-dasharray:none;stroke-opacity:1"
       d="m 83.173214,934.4946 c 28.786966,16.62016 57.573936,33.24032 86.360906,49.86048 -14.34802,8.28384 -28.69603,16.56772 -43.04405,24.85152 C 97.703101,992.58643 68.916132,975.96626 40.129163,959.34609 54.47718,951.06226 68.825197,942.77843 83.173214,934.4946 Z"
       id="path4209"
       inkscape:connector-curvature="0" />
    <path
       style="fill:#ffffff;fill-opacity:1;stroke:#000000;stroke-width:0.99999988;stroke-linejoin:miter;stroke-miterlimit:4;stroke-dasharray:none;stroke-opacity:1"
       d="m 126.4443,1009.2294 c 14.36747,-8.2948 28.73494,-16.5897 43.10241,-24.88455 0,6.60062 0,13.20123 0,19.80185 -14.36747,8.2951 -28.73494,16.5901 -43.10241,24.8852 0,-6.6008 0,-13.2017 0,-19.8025 z"
       id="path4215"
       inkscape:connector-curvature="0" />
    <path
       style="fill:#ffffff;fill-opacity:1;stroke:#000000;stroke-width:0.99999988;stroke-linejoin:miter;stroke-miterlimit:4;stroke-dasharray:none;stroke-opacity:1"
       d="m 91.549989,929.19203 c 14.361211,-8.29145 28.722411,-16.58289 43.083621,-24.87434 0,19.92787 0,39.85573 0,59.7836 -14.36121,8.29145 -28.72241,16.58289 -43.083621,24.87434 0,-19.92787 0,-39.85573 0,-59.7836 z"
       id="path4207-3"
       inkscape:connector-curvature="0" />
    <path
       style="fill:#ffffff;fill-opacity:1;stroke:#000000;stroke-width:0.99999988;stroke-linejoin:miter;stroke-miterlimit:4;stroke-dasharray:none;stroke-opacity:1"
       d="m 74.473461,919.40476 c 5.708402,3.29575 11.416804,6.59149 17.125206,9.88724 0,19.92788 0,39.85575 0,59.78363 -5.708402,-3.29575 -11.416804,-6.59149 -17.125206,-9.88724 0,-19.92788 0,-39.85575 0,-59.78363 z"
       id="path4201"
       inkscape:connector-curvature="0" />
    <path
       style="fill:#ffffff;fill-opacity:1;stroke:#000000;stroke-width:0.99999988;stroke-linejoin:miter;stroke-miterlimit:4;stroke-dasharray:none;stroke-opacity:1"
       d="m 39.875575,879.78498 c 28.773658,16.61248 57.547317,33.22496 86.320975,49.83744 0,6.57366 0,13.14733 0,19.72099 -28.773658,-16.61248 -57.547317,-33.22496 -86.320975,-49.83744 0,-6.57366 0,-13.14733 0,-19.72099 z"
       id="rect3392"
       inkscape:connector-curvature="0" />
    <path
       style="fill:#ffffff;fill-opacity:1;stroke:#000000;stroke-width:0.99999988;stroke-linejoin:miter;stroke-miterlimit:4;stroke-dasharray:none;stroke-opacity:1"
       d="m 82.960899,854.8957 c 28.786971,16.62016 57.573931,33.24033 86.360901,49.86049 -14.34802,8.28383 -28.69603,16.56767 -43.04405,24.8515 C 97.490784,912.98753 68.703818,896.36736 39.916852,879.7472 54.264868,871.46337 68.612883,863.17953 82.960899,854.8957 Z"
       id="path4205"
       inkscape:connector-curvature="0" />
    <path
       style="fill:#ffffff;fill-opacity:1;stroke:#000000;stroke-width:0.99999988;stroke-linejoin:miter;stroke-miterlimit:4;stroke-dasharray:none;stroke-opacity:1"
       d="m 126.23936,929.66112 c 14.36747,-8.29506 28.73494,-16.59012 43.10241,-24.88518 0,6.6008 0,13.20161 0,19.80241 -14.36747,8.29506 -28.73494,16.59012 -43.10241,24.88518 0,-6.6008 0,-13.20161 0,-19.80241 z"
       id="path4213"
       inkscape:connector-curvature="0" />
    <path
       style="fill:#00ff00;fill-opacity:1;stroke:#000000;stroke-width:0.99999988;stroke-linejoin:miter;stroke-miterlimit:4;stroke-dasharray:none;stroke-opacity:1"
       d="m 83.467443,1003.6281 c -14.265554,-8.25007 -28.541757,-16.48184 -42.789607,-24.76243 -0.12129,-6.27863 0.06744,-12.55969 0.114448,-18.8391 28.507736,16.48299 57.03269,32.93617 85.562636,49.38063 -0.0279,6.298 0.0763,12.599 -0.10616,18.8945 -14.27832,-8.1934 -28.52371,-16.4442 -42.781317,-24.6736 z"
       id="path4240"
       inkscape:connector-curvature="0" />
    <path
       style="fill:#00ff00;fill-opacity:1;stroke:#000000;stroke-width:0.99999988;stroke-linejoin:miter;stroke-miterlimit:4;stroke-dasharray:none;stroke-opacity:1"
       d="m 117.65003,1003.8232 c -8.53616,-4.94987 -17.07689,-9.8918 -25.618059,-14.83297 14.174409,-8.13261 28.265509,-16.41447 42.541479,-24.3669 11.49972,6.35815 22.8772,12.96905 34.07964,19.83911 -14.00957,8.23321 -28.09824,16.33856 -42.2618,24.30376 -2.96154,-1.5597 -5.83639,-3.2809 -8.74126,-4.943 z"
       id="path4242"
       inkscape:connector-curvature="0" />
    <path
       style="fill:#00ff00;fill-opacity:1;stroke:#000000;stroke-width:0.99999988;stroke-linejoin:miter;stroke-miterlimit:4;stroke-dasharray:none;stroke-opacity:1"
       d="m 126.77955,1018.8276 c 0,-3.1633 0,-6.3266 0,-9.4899 14.03105,-8.0915 28.02751,-16.24372 42.10083,-24.26144 0.62687,6.28696 0.26491,12.64044 0.36201,18.95744 -14.08987,8.1011 -28.12574,16.2978 -42.28092,24.2839 -0.23496,-3.1548 -0.14677,-6.3278 -0.18192,-9.49 z"
       id="path4244"
       inkscape:connector-curvature="0" />
    <path
       style="fill:#00ff00;fill-opacity:1;stroke:#000000;stroke-width:0.99999988;stroke-linejoin:miter;stroke-miterlimit:4;stroke-dasharray:none;stroke-opacity:1"
       d="m 82.724343,983.66297 c -2.724699,-1.57342 -5.449398,-3.14685 -8.174097,-4.72027 0.09868,-19.61056 -0.272024,-39.23698 0.367826,-58.83459 5.576979,3.08982 11.076468,6.31738 16.610438,9.48337 -0.0807,19.59982 0.235195,39.21066 -0.311635,58.8014 -2.894881,-1.45482 -5.674617,-3.13286 -8.492532,-4.72991 z"
       id="path4246"
       inkscape:connector-curvature="0" />
    <path
       style="fill:#00ff00;fill-opacity:1;stroke:#000000;stroke-width:0.99999988;stroke-linejoin:miter;stroke-miterlimit:4;stroke-dasharray:none;stroke-opacity:1"
       d="m 91.960012,959.14735 c 0,-9.75745 0,-19.51491 0,-29.27236 11.464858,6.62402 22.929718,13.24805 34.394568,19.87208 3.55677,-1.91805 9.86869,-7.58188 8.05426,0.60481 0.0113,4.54482 -0.003,9.08967 -0.004,13.6345 -14.14778,8.14482 -28.28781,16.30313 -42.443998,24.43332 -2.8e-4,-9.75731 5.6e-4,-19.51574 -4.2e-4,-29.27235 z"
       id="path4248"
       inkscape:connector-curvature="0" />
    <path
       style="fill:#00ff00;fill-opacity:1;stroke:#000000;stroke-width:0.99999988;stroke-linejoin:miter;stroke-miterlimit:4;stroke-dasharray:none;stroke-opacity:1"
       d="m 57.290705,968.97261 c -5.540866,-3.20845 -11.081732,-6.4169 -16.622598,-9.62535 11.144606,-6.45152 22.301944,-12.881 33.45751,-19.31354 -0.02744,12.86102 0.07591,25.72348 -0.106157,38.58329 -5.593279,-3.18505 -11.155338,-6.42476 -16.728755,-9.6444 z"
       id="path4250"
       inkscape:connector-curvature="0" />
    <path
       style="fill:#00ff00;fill-opacity:1;stroke:#000000;stroke-width:0.99999988;stroke-linejoin:miter;stroke-miterlimit:4;stroke-dasharray:none;stroke-opacity:1"
       d="m 82.950479,924.10079 c -14.255832,-8.21931 -28.511665,-16.43862 -42.767497,-24.65793 0.0591,-6.29761 -0.205292,-12.61259 0.233349,-18.89597 28.431558,16.16541 56.764473,32.51059 84.991519,49.03064 0.92948,6.30446 0.21341,12.79319 0.31012,19.18119 -14.25583,-8.21931 -28.511661,-16.43862 -42.767491,-24.65793 z"
       id="path4252"
       inkscape:connector-curvature="0" />
    <path
       style="fill:#00ff00;fill-opacity:1;stroke:#000000;stroke-width:0.99999988;stroke-linejoin:miter;stroke-miterlimit:4;stroke-dasharray:none;stroke-opacity:1"
       d="M 83.399507,904.58316 C 69.224169,896.30393 54.898915,888.25889 40.959392,879.58998 54.876493,871.31255 68.96236,863.32091 82.971991,855.20075 111.45336,871.7046 140.06074,887.99532 168.39313,904.7529 154.41377,913.09273 140.37557,921.356 126.1426,929.25638 111.8949,921.03197 97.647205,912.80757 83.399507,904.58316 Z"
       id="path4254"
       inkscape:connector-curvature="0" />
    <path
       style="fill:#00ff00;fill-opacity:1;stroke:#000000;stroke-width:0.99999988;stroke-linejoin:miter;stroke-miterlimit:4;stroke-dasharray:none;stroke-opacity:1"
       d="m 126.35492,939.40476 c 0,-3.1691 0,-6.33821 0,-9.50731 14.30158,-8.26637 28.65113,-16.45102 42.90362,-24.80135 -0.0762,6.45216 -0.15231,12.90431 -0.22846,19.35647 -14.16629,8.15903 -28.28307,16.40545 -42.50919,24.4595 -0.21441,-3.16202 -0.13388,-6.33916 -0.16597,-9.50731 z"
       id="path4256"
       inkscape:connector-curvature="0" />
    <path
       inkscape:connector-curvature="0"
       id="path4152"
       d="m 40.231778,978.53162 -15,8.66026"
       style="fill:none;fill-rule:evenodd;stroke:#ff0000;stroke-width:2;stroke-linecap:butt;stroke-linejoin:miter;stroke-miterlimit:4;stroke-dasharray:none;stroke-opacity:1" />
    <path
       style="fill:none;fill-rule:evenodd;stroke:#ff0000;stroke-width:2;stroke-linecap:butt;stroke-linejoin:miter;stroke-miterlimit:4;stroke-dasharray:none;stroke-opacity:1"
       d="m 126.5375,1028.5316 -15,8.6602"
       id="path4194"
       inkscape:connector-curvature="0" />
    <path
       style="fill:none;fill-rule:evenodd;stroke:#ff0000;stroke-width:1.99999976;stroke-linecap:butt;stroke-linejoin:miter;stroke-miterlimit:4;stroke-dasharray:none;stroke-opacity:1"
       d="m 33.566538,982.80663 86.411892,49.89387"
       id="path4196"
       inkscape:connector-curvature="0" />
  </g>
</svg>
