<svg xmlns="http://www.w3.org/2000/svg" width="77.319" height="150.223" viewBox="0 0 72.487 142.256"><g stroke="#000" stroke-linejoin="round"><path d="M.134 21.853v98.55h.072c-.201 5.488 3.323 11.018 10.586 15.211 14.11 8.147 36.955 8.164 51.027.04 7.269-4.197 10.763-9.745 10.51-15.25h.024V21.853H.133z" fill="#0f0"/><path d="M10.668 6.603c14.073-8.125 36.918-8.107 51.028.039 14.11 8.146 14.14 21.336.068 29.46-14.072 8.125-36.918 8.108-51.028-.038-14.11-8.147-14.14-21.337-.068-29.461" fill="#0f0"/><path d="M17.822 10.733c10.132-5.85 26.58-5.838 36.74.028 10.159 5.865 10.18 15.362.048 21.212s-26.58 5.837-36.74-.028c-10.159-5.866-10.18-15.363-.048-21.212" fill="#fff" stroke-width=".72"/></g></svg>