<svg xmlns="http://www.w3.org/2000/svg" width="92.487" height="140.834" viewBox="0 0 92.487 142.256"><path d="M20.336 21.853v98.55h.072c-.2 5.488 3.323 11.018 10.586 15.212 14.11 8.146 36.955 8.163 51.028.039 7.268-4.197 10.762-9.745 10.51-15.25h.023V21.853h-72.22z" fill="#0f0" stroke="#000" stroke-linejoin="round"/><path d="M30.87 6.603c14.073-8.125 36.918-8.107 51.028.039 14.11 8.146 14.14 21.336.068 29.46-14.072 8.125-36.918 8.108-51.028-.038-14.11-8.147-14.14-21.337-.068-29.461" fill="#0f0" stroke="#000" stroke-linejoin="round"/><path d="M38.024 10.733c10.132-5.85 26.58-5.838 36.74.028 10.159 5.865 10.18 15.362.048 21.212s-26.58 5.837-36.74-.028c-10.159-5.866-10.18-15.363-.048-21.212" fill="#fff" stroke="#000" stroke-width=".72" stroke-linejoin="round"/><path d="M20.833 12.042v18.622M92.003 12.042v18.622M90.993 21.353h-69.15" fill="none" stroke="red" stroke-width="2.02"/></svg>