<svg xmlns="http://www.w3.org/2000/svg" width="92.487" height="140.834" viewBox="0 0 92.487 142.256"><g fill="#0f0" stroke="#000" stroke-linejoin="round"><path d="M19.978 21.853v98.55h.072c-.2 5.488 3.324 11.018 10.586 15.211 14.11 8.147 36.955 8.164 51.028.04 7.268-4.197 10.762-9.745 10.51-15.25h.023V21.853H19.978z"/><path d="M30.512 6.603c14.073-8.125 36.919-8.107 51.028.039 14.11 8.146 14.14 21.336.068 29.46-14.072 8.125-36.918 8.108-51.028-.038-14.11-8.147-14.14-21.337-.068-29.461"/></g><path d="M20.488 9.087V27.71M91.658 9.087V27.71M90.648 18.398h-69.15" fill="none" stroke="red" stroke-width="2.02"/></svg>