<svg xmlns="http://www.w3.org/2000/svg" width="213.199" height="183.226"><path transform="matrix(.86603 .5 0 1 2.814 -870.162)" fill="#0f0" stroke="#000" stroke-width="1.075" d="M21.058 958.632H119.9v19H21.058z"/><path transform="matrix(.86603 -.5 0 1 2.814 -870.162)" fill="#0f0" stroke="#000" stroke-width="1.075" d="M119.93 1078.542h98.92v19h-98.92z"/><path transform="matrix(.86603 .5 -.86603 .5 2.814 -870.162)" fill="#0f0" stroke="#000" stroke-width="1.075" d="M979.544 859.782h99v98.842h-99z"/><path transform="matrix(.86603 .5 0 1 2.814 -870.162)" fill="#0f0" stroke="#000" stroke-width="1.075" d="M20.987 909.598h18.985v49H20.987z"/><path transform="matrix(.86603 -.5 0 1 2.814 -870.162)" fill="#0f0" stroke="#000" stroke-width="1.075" d="M39.916 949.543h98.842v49H39.916z"/><path transform="matrix(.86603 .5 -.86603 .5 2.814 -870.162)" fill="#0f0" stroke="#000" stroke-width="1.075" d="M1010.552 810.789h19v98.842h-19zM930.619 810.779h19v98.842h-19z"/><path transform="matrix(.86603 .5 0 1 2.814 -870.162)" fill="#0f0" stroke="#000" stroke-width="1.075" d="M100.938 909.63h18.985v49h-18.985z"/><path transform="matrix(.86603 -.5 0 1 2.814 -870.162)" fill="#0f0" stroke="#000" stroke-width="1.075" d="M119.929 1029.549h98.842v49h-98.842z"/><path d="M20.5 49.976h-15M20.5 117.476h-15M13 116.477v-65.5" fill="none" stroke="red" stroke-width="2"/></svg>