<svg xmlns="http://www.w3.org/2000/svg" width="144.632" height="169.663" viewBox="0 0 38.267 44.89"><path transform="matrix(.86603 .5 0 1 -71.273 -213.815)" fill="#0f0" stroke="#000" stroke-width=".303" d="M87.647 178.359h16.607v27.94H87.647z"/><path transform="matrix(.86603 -.5 0 1 -71.273 -213.815)" fill="#0f0" stroke="#000" stroke-width=".303" d="M104.535 282.806h16.607v27.94h-16.607z"/><path transform="matrix(.86603 .5 -.86603 .5 -71.273 -213.815)" fill="#0f0" stroke="#000" stroke-width=".303" d="M266.17 161.764h16.651v16.607H266.17z"/><path transform="scale(1.22626 .70448) rotate(45 337.304 -221.913)" fill="#fff" stroke="#000" stroke-width=".304" d="M269.317 165.055h11.206v11.177h-11.206z"/><path d="M8.826 6.346L.26 11.406M15.487 14.491l10.732 6.184M10.16 7.966l-8.567 5.06M1.668 10.58l1.191 1.858" fill="none" stroke="red" stroke-width=".564"/><path d="M-4.241 12.2c-.225-.057-.132-.078-.286 0-.032.015-.066.027-.095.047-.089.059-.005.048-.096.048" fill="none" stroke="#000" stroke-width=".282"/><path d="M16.821 12.3l10.732 6.183M26.35 17.865l-1.179 2.224" fill="none" stroke="red" stroke-width=".564"/></svg>