<svg xmlns="http://www.w3.org/2000/svg" width="171.617" height="185.58"><path d="M21.266 104.88l86.321 49.836v19.721L21.267 124.6v-19.72z" fill="#fff" stroke="#000"/><path d="M64.256 80.176l86.361 49.86-43.044 24.852-86.36-49.86 43.043-24.852z" fill="#fff" stroke="#000"/><path d="M107.527 154.911l43.103-24.884v19.801l-43.103 24.886V154.91zM72.633 74.874l43.084-24.875v59.784l-43.084 24.874V74.874z" fill="#fff" stroke="#000"/><path d="M55.557 65.086l17.125 9.888v59.783l-17.125-9.887V65.086z" fill="#fff" stroke="#000"/><path d="M20.959 25.467l86.32 49.837v19.721L20.96 45.188V25.467zM64.044.577l86.36 49.86c-14.347 8.285-28.695 16.569-43.043 24.852L21 25.43 64.044.577zM107.323 75.343l43.102-24.885V70.26l-43.102 24.885V75.343z" fill="#fff" stroke="#000"/><path d="M64.55 149.31c-14.265-8.25-28.541-16.482-42.789-24.763-.121-6.278.067-12.56.114-18.839a73148.656 73148.656 0 0 0 85.563 49.38c-.028 6.299.076 12.6-.106 18.895-14.278-8.193-28.524-16.444-42.781-24.673zM98.733 149.505c-8.536-4.95-17.077-9.892-25.618-14.833 14.175-8.133 28.266-16.415 42.542-24.367a875.727 875.727 0 0 1 34.08 19.84 2563.133 2563.133 0 0 1-42.263 24.303c-2.961-1.56-5.836-3.281-8.74-4.943zM107.863 164.51v-9.49c14.03-8.092 28.027-16.244 42.1-24.262.627 6.287.265 12.64.363 18.957-14.09 8.101-28.126 16.298-42.281 24.284-.235-3.155-.147-6.328-.182-9.49zM63.807 129.345l-8.174-4.72c.1-19.611-.272-39.238.368-58.835 5.577 3.09 11.077 6.317 16.61 9.483-.08 19.6.236 39.21-.311 58.802-2.895-1.455-5.675-3.133-8.493-4.73zM73.043 104.829V75.557l34.395 19.872c3.556-1.918 9.868-7.582 8.054.605.011 4.544-.003 9.09-.004 13.634-14.148 8.145-28.288 16.303-42.444 24.433V104.83zM38.374 114.654L21.75 105.03c11.145-6.452 22.302-12.881 33.458-19.314-.028 12.861.076 25.724-.106 38.584-5.594-3.185-11.156-6.425-16.73-9.645z" fill="#0f0" stroke="#000"/><path d="M64.034 69.782L21.266 45.125c.06-6.298-.205-12.613.233-18.896a7839.154 7839.154 0 0 1 84.992 49.03c.93 6.305.213 12.793.31 19.181L64.034 69.782zM64.483 50.265c-14.176-8.28-28.5-16.324-42.44-24.993C35.96 16.994 50.046 9.002 64.055.882c28.482 16.504 57.089 32.795 85.421 49.553-13.98 8.34-28.017 16.603-42.25 24.503L64.483 50.265zM107.438 85.086V75.58c14.302-8.266 28.651-16.45 42.904-24.801l-.229 19.356c-14.166 8.16-28.283 16.406-42.509 24.46-.214-3.162-.134-6.34-.166-9.508z" fill="#0f0" stroke="#000"/><path d="M21.315 124.213l-15 8.66M107.62 174.213l-15 8.66M14.65 128.488l86.412 49.894" fill="none" stroke="red" stroke-width="2"/></svg>