<?xml version="1.0" encoding="UTF-8" standalone="no"?>
<!-- Created with Inkscape (http://www.inkscape.org/) -->

<svg
   xmlns:dc="http://purl.org/dc/elements/1.1/"
   xmlns:cc="http://creativecommons.org/ns#"
   xmlns:rdf="http://www.w3.org/1999/02/22-rdf-syntax-ns#"
   xmlns:svg="http://www.w3.org/2000/svg"
   xmlns="http://www.w3.org/2000/svg"
   xmlns:sodipodi="http://sodipodi.sourceforge.net/DTD/sodipodi-0.dtd"
   xmlns:inkscape="http://www.inkscape.org/namespaces/inkscape"
   width="20.457321mm"
   height="39.746418mm"
   viewBox="0 0 72.486572 142.25633"
   id="svg2"
   version="1.1"
   inkscape:version="0.91 r13725"
   sodipodi:docname="pipe.svg">
  <defs
     id="defs4">
    <inkscape:perspective
       id="perspective3955"
       inkscape:persp3d-origin="-30.567374 : 198.119 : 1"
       inkscape:vp_z="184.74955 : 106.6652 : 0"
       inkscape:vp_y="0 : 1913.022 : 0"
       inkscape:vp_x="-260.42844 : 150.35842 : 0"
       sodipodi:type="inkscape:persp3d" />
  </defs>
  <sodipodi:namedview
     id="base"
     pagecolor="#ffffff"
     bordercolor="#666666"
     borderopacity="1.0"
     inkscape:pageopacity="0.0"
     inkscape:pageshadow="2"
     inkscape:zoom="1.979899"
     inkscape:cx="-14.760071"
     inkscape:cy="102.55258"
     inkscape:document-units="px"
     inkscape:current-layer="layer1"
     showgrid="false"
     inkscape:snap-object-midpoints="false"
     inkscape:snap-center="false"
     showguides="true"
     inkscape:guide-bbox="true"
     inkscape:snap-bbox="true"
     inkscape:bbox-paths="false"
     inkscape:bbox-nodes="false"
     inkscape:object-paths="false"
     inkscape:snap-bbox-edge-midpoints="true"
     fit-margin-top="0"
     fit-margin-left="0"
     fit-margin-right="0"
     fit-margin-bottom="0"
     inkscape:window-width="1366"
     inkscape:window-height="696"
     inkscape:window-x="0"
     inkscape:window-y="0"
     inkscape:window-maximized="1"
     inkscape:snap-bbox-midpoints="true">
    <sodipodi:guide
       position="205.75213,-82.074052"
       orientation="0,1"
       id="guide3447" />
  </sodipodi:namedview>
  <metadata
     id="metadata7">
    <rdf:RDF>
      <cc:Work
         rdf:about="">
        <dc:format>image/svg+xml</dc:format>
        <dc:type
           rdf:resource="http://purl.org/dc/dcmitype/StillImage" />
        <dc:title></dc:title>
      </cc:Work>
    </rdf:RDF>
  </metadata>
  <g
     inkscape:label="レイヤー 1"
     inkscape:groupmode="layer"
     id="layer1"
     transform="translate(-133.37145,-836.54308)">
    <path
       inkscape:connector-curvature="0"
       style="fill:#00ff00;fill-opacity:1;stroke:#000000;stroke-linejoin:round;stroke-opacity:1"
       d="m 133.50536,858.39585 0,98.55078 0.0723,0 c -0.20117,5.48721 3.32319,11.01778 10.58594,15.21094 14.10963,8.1461 36.95513,8.16366 51.02734,0.0391 7.26805,-4.1962 10.7623,-9.74414 10.50977,-15.25 l 0.0234,0 0,-98.55078 -72.21875,0 z"
       id="rect4305" />
    <path
       style="fill:#00ff00;fill-opacity:1;stroke:#000000;stroke-width:1;stroke-linejoin:round;stroke-opacity:1"
       d="m 144.03974,843.14585 c 14.07222,-8.1246 36.91813,-8.10709 51.02776,0.0391 14.10963,8.1462 14.13996,21.33629 0.0677,29.46089 -14.07221,8.1246 -36.91812,8.10709 -51.02775,-0.0391 -14.10963,-8.1462 -14.13996,-21.33629 -0.0677,-29.46089"
       id="ellipse4269"
       inkscape:connector-curvature="0"
       sodipodi:nodetypes="csssc" />
    <path
       sodipodi:nodetypes="csssc"
       inkscape:connector-curvature="0"
       id="path3359"
       d="m 151.19313,847.27572 c 10.13201,-5.84981 26.58105,-5.8372 36.73998,0.0281 10.15893,5.86535 10.18077,15.36236 0.0487,21.21216 -10.132,5.8498 -26.58105,5.83719 -36.73997,-0.0281 -10.15893,-5.86535 -10.18077,-15.36236 -0.0487,-21.21216"
       style="fill:#00ff00;fill-opacity:1;stroke:#000000;stroke-width:0.72000557;stroke-linejoin:round;stroke-opacity:1" />
    <path
       style="fill:#008000"
       d="M 27.514813,34.559583 C 12.663382,31.292162 6.6255541,21.114388 15.038742,13.52907 19.655851,9.3662904 25.238148,7.5397733 34.333343,7.2159113 42.48205,6.925752 46.965481,7.7011983 52.289902,10.321646 c 5.977455,2.941842 8.92904,6.540968 8.92904,10.887961 0,2.951203 -0.945245,4.794355 -3.815639,7.440192 -2.692265,2.481643 -4.933746,3.679637 -9.685439,5.17653 -4.727115,1.489151 -15.062291,1.864258 -20.203051,0.733254 z"
       id="path3361"
       inkscape:connector-curvature="0"
       transform="matrix(1.0101011,0,0,1.010101,133.00536,836.54308)" />
    <path
       style="fill:#ffffff"
       d="m 28.924809,34.676396 c -0.143721,-0.232545 -0.690001,-0.310703 -1.213957,-0.173686 -0.523956,0.137018 -1.089506,0.02768 -1.256777,-0.24297 -0.167271,-0.27065 -0.614788,-0.372881 -0.994481,-0.22718 -0.379692,0.145702 -0.826976,0.04385 -0.993963,-0.226344 -0.166987,-0.270191 -0.499488,-0.370199 -0.73889,-0.22224 -0.239402,0.147958 -0.580328,0.03432 -0.757614,-0.252539 -0.177286,-0.286854 -0.533917,-0.39079 -0.792514,-0.230968 -0.258597,0.159821 -0.470177,0.07746 -0.470177,-0.183024 0,-0.428764 -2.408542,-1.666878 -3.387601,-1.7414 -0.220259,-0.01676 -1.76935,-1.39465 -3.442425,-3.061968 -2.979774,-2.969519 -3.045048,-3.093913 -3.193312,-6.085557 -0.08325,-1.67974 -0.261951,-3.233014 -0.397119,-3.451721 -0.135169,-0.218708 -0.04154,-0.39765 0.208051,-0.39765 0.39305,0 1.825871,-2.525016 1.658571,-2.922847 -0.03352,-0.07971 1.025063,-0.97333 2.352408,-1.985822 1.327345,-1.012492 2.713695,-2.140517 3.080777,-2.506723 0.627127,-0.625629 1.361437,-0.8638498 2.236767,-0.72564 0.208344,0.0329 0.378807,-0.1808861 0.378807,-0.4750725 0,-0.2941864 0.211579,-0.4041212 0.470176,-0.2442994 0.258597,0.1598217 0.615229,0.055886 0.792514,-0.2309688 0.177286,-0.2868546 0.518213,-0.4004968 0.757615,-0.2525382 0.239402,0.1479586 0.571902,0.04795 0.73889,-0.2222407 0.166987,-0.2701909 0.63726,-0.3632237 1.045052,-0.2067393 0.407791,0.1564843 0.741439,0.089737 0.741439,-0.1483278 0,-0.4813014 0.253154,-0.4977971 10.606602,-0.6911336 4.027983,-0.075217 7.687442,0.020252 8.13213,0.2121539 0.444689,0.1919018 1.0129,0.3009063 1.262691,0.2422323 0.249792,-0.058674 1.136019,0.1745766 1.969395,0.5183347 0.833376,0.3437582 1.912976,0.6561119 2.399112,0.6941192 0.486136,0.038008 0.883884,0.2204473 0.883884,0.4054221 0,0.2994654 2.369603,1.4560451 3.375593,1.6475941 0.444952,0.08472 4.564521,4.147985 5.749777,5.67119 0.435387,0.559527 0.70055,1.290503 0.589257,1.62439 -0.111299,0.333888 -0.01296,0.607069 0.218541,0.607069 0.231492,0 0.420895,0.909137 0.420895,2.020305 0,1.111168 -0.194777,2.020305 -0.432845,2.020305 -0.238062,0 -0.30202,0.340926 -0.142118,0.757614 0.159897,0.416688 0.05716,0.757615 -0.228311,0.757615 -0.285467,0 -0.393282,0.203468 -0.239587,0.452152 0.153695,0.248683 -0.09271,0.59496 -0.547559,0.769503 -0.454852,0.174543 -0.68816,0.456195 -0.518461,0.625894 0.169698,0.169698 -0.706908,1.083897 -1.948015,2.031552 -1.241106,0.947655 -2.256557,1.953296 -2.256557,2.234758 0,0.281461 -0.227284,0.371279 -0.505076,0.199594 -0.277792,-0.171685 -0.505076,-0.05804 -0.505076,0.252538 0,0.310581 -0.227285,0.424223 -0.505077,0.252538 -0.277792,-0.171685 -0.505076,-0.05804 -0.505076,0.252539 0,0.310581 -0.227284,0.424223 -0.505076,0.252538 -0.277792,-0.171685 -0.505077,-0.119824 -0.505077,0.115247 0,0.235072 -0.508023,0.465671 -1.128941,0.512443 -0.620917,0.04677 -1.203812,0.309655 -1.295322,0.584185 -0.09151,0.274529 -0.492624,0.373954 -0.891364,0.220942 -0.39874,-0.153011 -0.724983,-0.04788 -0.724983,0.233627 0,0.281506 -0.454568,0.392956 -1.010152,0.247668 -0.555584,-0.145288 -1.010153,-0.04189 -1.010153,0.229783 0,0.271669 -0.568211,0.385324 -1.262691,0.252566 -0.694479,-0.132758 -1.26269,-0.04442 -1.26269,0.196309 0,0.562441 -14.152519,0.576964 -14.499907,0.01488 z"
       id="path3363"
       inkscape:connector-curvature="0"
       transform="matrix(1.0101011,0,0,1.010101,133.00536,836.54308)" />
  </g>
</svg>
